# xmcd
#
# Track frame offsets:
# 150
# 35094
# 45423
# 72778
# 83801
# 129249
# 139277
# 163959
# 181026
# 202697
# 217272
#
# Disc length: 3135 seconds
#
#
# Revision: 0
# Processed by: cddbd v1.5.2PL0 Copyright (c) Steve Scherf et al.
# Submitted via: FreeRIP 2.951 
#
DISCID=990c3d0b
DTITLE=Barnabé - Piadas e Anedotas
DYEAR=1900
DGENRE=Comedy
TTITLE0=1-Piadas e Anedotas
TTITLE1=Utilidade do Sabugo
TTITLE2=3-Piadas e Anedotas
TTITLE3=Pitoco
TTITLE4=5-Piadas e Anedotas
TTITLE5=Simplicidade
TTITLE6=7-Piadas e Anedotas
TTITLE7=Historia dos Barnabé
TTITLE8=9-Piadas e Anedotas
TTITLE9=Depressão
TTITLE10=11-Simplicidade
EXTD=
EXTT0=
EXTT1=
EXTT2=
EXTT3=
EXTT4=
EXTT5=
EXTT6=
EXTT7=
EXTT8=
EXTT9=
EXTT10=
PLAYORDER=
